<?xml version="1.0" encoding="utf-8"?>
<!-- Generator: Adobe Illustrator 18.1.0, SVG Export Plug-In . SVG Version: 6.00 Build 0)  -->
<!DOCTYPE svg PUBLIC "-//W3C//DTD SVG 1.1//EN" "http://www.w3.org/Graphics/SVG/1.1/DTD/svg11.dtd">
<svg version="1.1" id="Logotype" xmlns="http://www.w3.org/2000/svg" xmlns:xlink="http://www.w3.org/1999/xlink" x="0px" y="0px"
	 width="394px" height="84px" viewBox="-282 239 394 84" enable-background="new -282 239 394 84" xml:space="preserve">
<g>
	<g>
		<g>
			<path fill="#747474" d="M-126.8,267.5v38.8h8.7v-50.5l0,0h-12l-15.3,37.4l-14.8-37.4h-12.5v50.4h8.1v-38.8h0.3l15.6,38.8h6.1
				l15.4-38.8h0.4L-126.8,267.5L-126.8,267.5z"/>
		</g>
		<g>
			<path fill="#747474" d="M-105.6,254.7c-1.4,0-2.6,0.5-3.6,1.4c-1,0.9-1.5,2.1-1.5,3.5s0.5,2.6,1.5,3.5s2.2,1.4,3.6,1.4
				c1.4,0,2.7-0.5,3.7-1.4s1.5-2.1,1.5-3.5s-0.5-2.5-1.5-3.5C-102.9,255.2-104.2,254.7-105.6,254.7L-105.6,254.7z M-101.5,270.1
				h-8.5v36.1h8.5V270.1L-101.5,270.1z"/>
		</g>
		<g>
			<path fill="#747474" d="M-76.2,269.2c-3.9,0-7.4,0.8-10.3,2.5c-3,1.7-5.3,4-6.8,7c-1.6,3-2.3,6.5-2.3,10.4c0,3.4,0.8,6.5,2.3,9.3
				c1.5,2.8,3.7,4.9,6.4,6.4s5.8,2.3,9.3,2.3c4,0,7.5-0.8,10.2-2.4l0.1-0.1v-7.8l-0.4,0.3c-1.3,0.9-2.7,1.6-4.2,2.2
				c-1.5,0.5-2.9,0.8-4.1,0.8c-3.3,0-6-1-8-3.1c-1.9-2.1-2.9-4.9-2.9-8.6c0-3.7,1-6.6,3.1-8.8c2-2.2,4.7-3.3,8-3.3
				c2.8,0,5.5,0.9,8.1,2.8l0.4,0.3v-8.2l-0.1-0.1c-1-0.5-2.3-1-3.9-1.3C-73,269.4-74.6,269.2-76.2,269.2L-76.2,269.2z"/>
		</g>
		<g>
			<path fill="#747474" d="M-52.4,276.4v-6.3h-8.5v36.1h8.5v-18.4c0-3.1,0.7-5.7,2.1-7.7c1.4-1.9,3.2-2.9,5.5-2.9
				c0.8,0,1.6,0.1,2.6,0.4c0.9,0.2,1.6,0.5,2,0.8l0.4,0.3v-8.6l-0.1-0.1c-0.8-0.3-1.9-0.5-3.3-0.5l0,0c-2.1,0-4,0.7-5.7,2
				C-50.5,272.7-51.6,274.3-52.4,276.4L-52.4,276.4z"/>
		</g>
		<g>
			<path fill="#747474" d="M-20.3,269.2c-6,0-10.7,1.7-14.1,5.2c-3.4,3.4-5.1,8.2-5.1,14.2c0,5.7,1.7,10.2,5,13.5
				c3.3,3.3,7.8,5,13.3,5c5.8,0,10.4-1.8,13.8-5.3c3.4-3.5,5.1-8.2,5.1-14c0-5.7-1.6-10.3-4.8-13.6
				C-10.2,270.9-14.6,269.2-20.3,269.2L-20.3,269.2z M-20.6,300.1c-3.1,0-5.6-1-7.3-3.1c-1.7-2-2.6-5-2.6-8.7c0-3.8,0.9-6.8,2.6-8.9
				c1.7-2.1,4.2-3.1,7.2-3.1s5.4,1,7.1,3s2.6,5,2.6,8.8c0,3.9-0.8,6.9-2.4,8.9C-15.1,299.1-17.5,300.1-20.6,300.1L-20.6,300.1z"/>
		</g>
		<g>
			<path fill="#747474" d="M15.6,269.2c-4.1,0-7.4,1-10,3.1c-2.6,2.1-3.9,4.8-3.9,8c0,1.7,0.3,3.2,0.8,4.5c0.6,1.3,1.4,2.4,2.6,3.4
				c1.1,0.9,2.9,1.9,5.2,2.9c2,0.8,3.4,1.5,4.3,2s1.6,1.1,1.9,1.6c0.4,0.5,0.5,1.2,0.5,2c0,2.4-1.8,3.6-5.6,3.6
				c-1.4,0-3-0.3-4.7-0.9S3.3,298,1.9,297l-0.4-0.3v8.3l0.1,0.1c1.2,0.6,2.8,1,4.6,1.4c1.8,0.4,3.4,0.6,4.9,0.6
				c4.4,0,7.9-1,10.5-3.1s3.9-4.8,3.9-8.2c0-2.4-0.7-4.5-2.1-6.2c-1.4-1.7-3.8-3.2-7.2-4.6c-2.7-1.1-4.4-2-5.1-2.7
				c-0.7-0.7-1-1.6-1-2.8c0-1.1,0.4-1.9,1.3-2.6c0.9-0.7,2.1-1,3.7-1c1.4,0,2.9,0.2,4.4,0.7c1.5,0.4,2.7,1,3.8,1.8l0.4,0.2v-7.9
				l-0.1-0.1c-1-0.4-2.3-0.8-3.9-1.1C18.3,269.4,16.9,269.2,15.6,269.2L15.6,269.2z"/>
		</g>
		<g>
			<path fill="#747474" d="M48.6,269.2c-6,0-10.7,1.7-14.1,5.2c-3.4,3.4-5.1,8.2-5.1,14.2c0,5.7,1.7,10.2,5,13.5
				c3.3,3.3,7.8,5,13.3,5c5.8,0,10.4-1.8,13.8-5.3c3.4-3.5,5.1-8.2,5.1-14c0-5.7-1.6-10.3-4.8-13.6
				C58.7,270.9,54.2,269.2,48.6,269.2L48.6,269.2z M48.2,300.1c-3.1,0-5.6-1-7.3-3.1c-1.7-2-2.6-5-2.6-8.7c0-3.8,0.9-6.8,2.6-8.9
				s4.2-3.1,7.2-3.1s5.4,1,7.1,3s2.6,5,2.6,8.8c0,3.9-0.8,6.9-2.4,8.9C53.8,299.1,51.4,300.1,48.2,300.1L48.2,300.1z"/>
		</g>
		<path fill="#747474" d="M111.9,277v-6.9h-8.6v-10.8l-0.3,0.1l-8.1,2.5h-0.2v8.2H82v-4.5c0-2.1,0.5-3.7,1.4-4.8
			c0.9-1.1,2.3-1.6,3.9-1.6c1.2,0,2.5,0.3,3.7,0.9l0.3,0.1v-7.3l-0.1-0.1c-1.2-0.4-2.8-0.6-4.8-0.6c-2.5,0-4.8,0.5-6.8,1.6
			c-2,1.1-3.6,2.6-4.7,4.6s-1.6,4.2-1.6,6.7v5h-6v6.9h6v29.2h8.6V277h12.8v18.5c0,7.6,3.6,11.5,10.7,11.5c1.2,0,2.4-0.1,3.7-0.4
			c1.3-0.3,2.1-0.6,2.7-0.8l0.1-0.1v-7l-0.3,0.2c-0.5,0.3-1,0.6-1.7,0.8c-0.7,0.2-1.3,0.3-1.7,0.3c-1.7,0-2.9-0.4-3.7-1.3
			c-0.8-0.9-1.2-2.5-1.2-4.6V277H111.9z"/>
	</g>
</g>
<rect x="-282" y="239" fill="#F25022" width="40" height="40"/>
<rect x="-237.9" y="239" fill="#7FBA00" width="40" height="40"/>
<rect x="-282" y="283.1" fill="#00A4EF" width="40" height="40"/>
<rect x="-237.9" y="283.1" fill="#FFB900" width="40" height="40"/>
</svg>
