<?xml version="1.0" encoding="utf-8"?>
<!-- Generator: Adobe Illustrator 18.1.1, SVG Export Plug-In . SVG Version: 6.00 Build 0)  -->
<!DOCTYPE svg PUBLIC "-//W3C//DTD SVG 1.1//EN" "http://www.w3.org/Graphics/SVG/1.1/DTD/svg11.dtd">
<svg version="1.1" id="Layer_1" xmlns="http://www.w3.org/2000/svg" xmlns:xlink="http://www.w3.org/1999/xlink" x="0px" y="0px"
	 width="512px" height="512px" viewBox="0 0 512 512" enable-background="new 0 0 512 512" xml:space="preserve">
<path d="M383.6,373.9c6.1,0,11.8,1.1,17.1,3.4c5.3,2.3,10,5.4,13.9,9.4c4,4,7.1,8.6,9.4,13.9c2.3,5.3,3.4,11.1,3.4,17.1
	c0,6.1-1.1,11.8-3.4,17.1c-2.3,5.3-5.4,10-9.4,13.9c-4,4-8.6,7.1-13.9,9.4c-5.3,2.3-11.1,3.4-17.1,3.4c-6.1,0-11.8-1.1-17.1-3.4
	c-5.3-2.3-10-5.4-13.9-9.4c-4-4-7.1-8.6-9.4-13.9c-2.3-5.3-3.4-11-3.4-17.1c0-4.7,0.8-9.6,2.5-14.6H220.1c1.7,5,2.5,9.9,2.5,14.6
	c0,6.1-1.1,11.8-3.4,17.1c-2.3,5.3-5.4,10-9.4,13.9c-4,4-8.6,7.1-13.9,9.4c-5.3,2.3-11.1,3.4-17.1,3.4c-6.1,0-11.8-1.1-17.1-3.4
	c-5.3-2.3-10-5.4-13.9-9.4c-4-4-7.1-8.6-9.4-13.9c-2.3-5.3-3.4-11-3.4-17.1c0-8.4,2.2-16.2,6.7-23.3c4.5-7.2,10.6-12.6,18.2-16.2
	L61,81.3H17.8V52H82l19.4,58.5H486l-68.1,204.8h-248l19.4,58.5H383.6z M111.3,139.8L160,286.1h236.6l48.7-146.3H111.3z M193.4,417.8
	c0-4-1.5-7.4-4.3-10.3c-2.9-2.9-6.3-4.3-10.3-4.3c-4,0-7.4,1.5-10.3,4.3c-2.9,2.9-4.3,6.3-4.3,10.3c0,4,1.4,7.4,4.3,10.3
	c2.9,2.9,6.3,4.3,10.3,4.3c4,0,7.4-1.4,10.3-4.3C191.9,425.2,193.4,421.7,193.4,417.8z M383.6,432.4c4,0,7.4-1.4,10.3-4.3
	c2.9-2.9,4.3-6.3,4.3-10.3c0-4-1.5-7.4-4.3-10.3c-2.9-2.9-6.3-4.3-10.3-4.3c-4,0-7.4,1.5-10.3,4.3c-2.9,2.9-4.3,6.3-4.3,10.3
	c0,4,1.4,7.4,4.3,10.3C376.2,431,379.6,432.4,383.6,432.4z"/>
</svg>
