<?xml version="1.0" encoding="utf-8"?>
<!-- Generator: Adobe Illustrator 18.1.1, SVG Export Plug-In . SVG Version: 6.00 Build 0)  -->
<!DOCTYPE svg PUBLIC "-//W3C//DTD SVG 1.1//EN" "http://www.w3.org/Graphics/SVG/1.1/DTD/svg11.dtd">
<svg version="1.1" id="Layer_1" xmlns="http://www.w3.org/2000/svg" xmlns:xlink="http://www.w3.org/1999/xlink" x="0px" y="0px"
	 width="512px" height="512px" viewBox="0 0 512 512" enable-background="new 0 0 512 512" xml:space="preserve">
<path d="M256,56c18.4,0,36.1,2.4,53.1,7.1c17.1,4.8,33,11.5,47.9,20.1c14.8,8.7,28.4,19.1,40.5,31.3c12.2,12.2,22.6,25.7,31.3,40.5
	c8.7,14.8,15.4,30.8,20.1,47.9c4.8,17.1,7.1,34.8,7.1,53.1s-2.4,36.1-7.1,53.1c-4.8,17.1-11.5,33-20.1,47.9
	c-8.7,14.8-19.1,28.4-31.3,40.5c-12.2,12.2-25.7,22.6-40.5,31.3c-14.8,8.7-30.8,15.4-47.9,20.1c-17.1,4.8-34.8,7.1-53.1,7.1
	s-36.1-2.4-53.1-7.1c-17.1-4.8-33-11.5-47.9-20.1c-14.8-8.7-28.4-19.1-40.5-31.3c-12.2-12.2-22.6-25.7-31.3-40.5
	c-8.7-14.8-15.4-30.8-20.1-47.8c-4.8-17-7.1-34.7-7.1-53.2c0-18.4,2.4-36.1,7.1-53.1c4.8-17.1,11.5-33,20.1-47.9
	c8.7-14.8,19.1-28.4,31.3-40.5c12.2-12.2,25.7-22.6,40.5-31.3c14.8-8.7,30.8-15.4,47.8-20.1C219.8,58.4,237.5,56,256,56z M81,256
	c0,17.3,2.4,34,7.2,50h70.9c-1-8.3-1.8-16.6-2.3-24.9c-0.5-8.3-0.8-16.6-0.8-25.1c0-8.5,0.3-16.8,0.8-25.1
	c0.5-8.3,1.3-16.6,2.3-24.9H88.2C83.4,222,81,238.7,81,256z M198.8,90.6c-10.9,3.8-21.4,8.7-31.4,14.6c-10,6-19.3,12.8-27.9,20.5
	c-8.6,7.7-16.4,16.2-23.4,25.5c-7,9.3-13,19.2-18,29.8h65c1.6-7.8,3.4-15.7,5.5-23.6c2.1-7.9,4.6-15.8,7.5-23.5
	c2.9-7.7,6.3-15.3,10.1-22.6C189.9,104,194.1,97.1,198.8,90.6z M98,331c4.9,10.5,10.9,20.5,18,29.8c7,9.3,14.8,17.8,23.4,25.5
	c8.6,7.7,17.9,14.5,27.9,20.5c10,6,20.5,10.9,31.4,14.6c-4.7-6.5-8.9-13.4-12.7-20.7c-3.8-7.3-7.1-14.8-10.1-22.6
	c-2.9-7.7-5.4-15.6-7.5-23.5c-2.1-7.9-3.9-15.8-5.5-23.6H98z M327.7,306c1-8.3,1.9-16.6,2.4-24.9c0.6-8.3,0.9-16.6,0.9-25.1
	c0-8.5-0.3-16.8-0.9-25.1c-0.6-8.3-1.4-16.6-2.4-24.9H184.3c-1,8.3-1.9,16.6-2.4,24.9c-0.6,8.3-0.9,16.6-0.9,25.1
	c0,8.5,0.3,16.8,0.9,25.1c0.6,8.3,1.4,16.6,2.4,24.9H327.7z M256,81c-6.4,0-12.3,1.8-17.9,5.3c-5.5,3.5-10.6,8.1-15.3,13.9
	c-4.7,5.7-8.9,12.2-12.6,19.4s-7,14.6-9.9,22c-2.9,7.4-5.3,14.6-7.2,21.5c-2,6.9-3.5,12.9-4.5,18h134.8c-1-5.1-2.5-11.1-4.5-18
	c-2-6.9-4.4-14.1-7.2-21.5c-2.9-7.4-6.2-14.7-9.9-22s-7.9-13.7-12.6-19.4c-4.7-5.7-9.8-10.4-15.3-13.9C268.3,82.8,262.4,81,256,81z
	 M256,431c6.4,0,12.3-1.8,17.9-5.3c5.5-3.5,10.6-8.1,15.3-13.9c4.7-5.7,8.9-12.2,12.6-19.4s7-14.6,9.9-22c2.9-7.4,5.3-14.6,7.2-21.5
	c2-6.9,3.4-12.9,4.5-18H188.6c1,5.1,2.5,11.1,4.5,18c2,6.9,4.4,14.1,7.2,21.5c2.9,7.4,6.2,14.7,9.9,22s7.9,13.7,12.6,19.4
	c4.7,5.7,9.8,10.4,15.3,13.9C243.7,429.2,249.6,431,256,431z M414,181c-5-10.5-10.9-20.5-18-29.8c-7-9.3-14.8-17.8-23.4-25.5
	c-8.6-7.7-17.9-14.5-27.9-20.5c-10-6-20.5-10.9-31.4-14.6c4.7,6.5,8.9,13.4,12.7,20.7c3.8,7.3,7.1,14.8,10.1,22.6
	c2.9,7.7,5.4,15.6,7.5,23.5c2.1,7.9,3.9,15.8,5.5,23.6H414z M313.2,421.4c10.9-3.8,21.4-8.7,31.4-14.6c10-6,19.3-12.8,27.9-20.5
	c8.6-7.7,16.4-16.2,23.4-25.5c7-9.3,13-19.2,18-29.8h-65c-1.6,7.8-3.4,15.7-5.5,23.6c-2.1,7.9-4.6,15.8-7.5,23.5
	c-2.9,7.7-6.3,15.3-10.1,22.6C322.1,408,317.9,414.9,313.2,421.4z M431,256c0-17.3-2.4-34-7.2-50h-70.9c1,8.3,1.8,16.6,2.3,24.9
	c0.5,8.3,0.8,16.6,0.8,25.1c0,8.5-0.3,16.8-0.8,25.1c-0.5,8.3-1.3,16.6-2.3,24.9h70.9C428.6,290,431,273.3,431,256z"/>
</svg>
