<?xml version="1.0" encoding="utf-8"?>
<!-- Generator: Adobe Illustrator 18.1.1, SVG Export Plug-In . SVG Version: 6.00 Build 0)  -->
<!DOCTYPE svg PUBLIC "-//W3C//DTD SVG 1.1//EN" "http://www.w3.org/Graphics/SVG/1.1/DTD/svg11.dtd">
<svg version="1.1" id="Layer_1" xmlns="http://www.w3.org/2000/svg" xmlns:xlink="http://www.w3.org/1999/xlink" x="0px" y="0px"
	 width="512px" height="512px" viewBox="0 0 512 512" enable-background="new 0 0 512 512" xml:space="preserve">
<path d="M318.5,36c12.6,0,24.8,1.6,36.5,4.9c11.7,3.3,22.7,7.9,32.8,13.9c10.2,6,19.4,13.2,27.8,21.6c8.4,8.4,15.6,17.7,21.6,27.8
	c6,10.2,10.6,21.1,13.9,32.8c3.3,11.7,4.9,23.9,4.9,36.5c0,12.6-1.6,24.8-4.9,36.5c-3.3,11.7-7.9,22.7-13.9,32.8
	c-6,10.2-13.2,19.4-21.6,27.8c-8.4,8.4-17.7,15.6-27.8,21.6c-10.2,6-21.1,10.6-32.8,13.9c-11.7,3.3-23.9,4.9-36.5,4.9
	c-16.3,0-31.9-2.7-46.8-8.2c-14.9-5.5-28.6-13.3-41.1-23.6L77.3,432.3c-2.5,2.5-5.4,3.7-8.8,3.7c-3.4,0-6.3-1.2-8.8-3.7
	c-2.5-2.5-3.7-5.4-3.7-8.8c0-3.4,1.2-6.3,3.7-8.8l153.1-153.3c-10.3-12.5-18.2-26.2-23.6-41.1c-5.5-14.9-8.2-30.5-8.2-46.8
	c0-12.6,1.6-24.8,4.9-36.5c3.3-11.7,7.9-22.7,13.9-32.8c6-10.2,13.2-19.4,21.6-27.8c8.4-8.4,17.7-15.6,27.8-21.6
	c10.2-6,21.1-10.6,32.8-13.9C293.7,37.6,305.9,36,318.5,36z M318.5,286c15.5,0,30.1-3,43.7-8.9c13.7-5.9,25.6-14,35.7-24.1
	c10.2-10.2,18.2-22.1,24.1-35.7c5.9-13.7,8.9-28.3,8.9-43.7c0-15.5-3-30.1-8.9-43.7c-5.9-13.7-14-25.6-24.1-35.7
	c-10.2-10.2-22.1-18.2-35.7-24.1C348.6,64,334,61,318.5,61c-15.5,0-30.1,3-43.7,8.9c-13.7,5.9-25.6,14-35.7,24.1
	c-10.2,10.2-18.2,22.1-24.1,35.7c-5.9,13.7-8.9,28.3-8.9,43.7c0,15.5,3,30.1,8.9,43.7c5.9,13.7,14,25.6,24.1,35.7
	c10.2,10.2,22.1,18.2,35.7,24.1C288.4,283,303,286,318.5,286z"/>
</svg>
